<?xml version="1.0" encoding="UTF-8"?>
<!-- Generated by Pixelmator Pro 4.3 -->
<svg viewBox="0 0 266 243" xmlns="http://www.w3.org/2000/svg">
    <g id="home-icon">
        <path id="Path" fill="#fe9f00" stroke="#fe9f00" stroke-width="4.166667" d="M 10.616562 129.845947 L 10.616562 125.057617 C 11.558014 122.427002 12.377411 119.723389 14.646896 117.457764 L 108.009735 24.257324 C 121.582123 10.70874 144.923553 10.85376 158.335052 24.182617 L 186.329926 52.004639 L 186.48587 36.942139 C 186.567688 29.039063 193.371368 23.104248 200.934448 23.364746 C 208.34317 23.620117 214.494812 29.618164 214.498627 37.47168 L 214.51944 80.207275 L 251.726074 117.517578 C 257.451874 123.259277 256.919098 132.000977 251.535736 137.354004 C 246.106781 142.752197 237.273895 142.784912 231.624054 137.135986 L 139.071991 44.599121 C 135.600494 41.128174 130.461182 41.444336 127.078217 44.825684 L 34.980743 136.876709 C 30.924591 140.930664 25.676773 142.501709 19.972702 140.59082 C 15.556396 139.111328 11.794769 134.849365 10.616562 129.845947 Z"/>
        <path id="path1" fill="#65ceef" stroke="none" d="M 156.04129 179.919922 L 110.34375 179.905273 L 110.346283 242.545898 L 69.047699 242.440674 C 55.817566 242.406982 45.414032 231.446289 44.589691 218.459717 L 44.584564 158.118896 C 44.584396 156.104736 45.159866 154.253418 46.618179 152.79541 L 128.145935 71.278809 C 131.099213 68.325928 135.295105 68.323486 138.251434 71.279297 L 219.778198 152.795166 C 221.236145 154.25293 221.811646 156.112305 221.811554 158.115723 L 221.808868 217.988037 C 221.271088 230.92334 211.049927 242.330322 197.825226 242.385986 L 156.029388 242.561768 L 156.04129 179.919922 Z"/>
    </g>
</svg>
